<svg version="1.1" id="Layer_1" xmlns="http://www.w3.org/2000/svg" xmlns:xlink="http://www.w3.org/1999/xlink" x="0px" y="0px"
	 width="100%" viewBox="0 0 1024 1024" enable-background="new 0 0 1024 1024" xml:space="preserve">
<path fill="#000000" opacity="1.000000" stroke="none" 
	d="
M591.529907,630.432861 
	C578.871521,595.190430 557.928406,566.596741 527.591370,545.141846 
	C512.148743,534.220581 494.823853,526.671631 477.970764,518.320374 
	C458.977417,508.908752 441.357605,497.763550 428.141785,480.744110 
	C427.055969,479.345764 425.367950,478.298615 425.171692,476.025085 
	C427.455475,475.599762 428.893005,477.251312 430.503235,478.140228 
	C447.501526,487.523621 465.189178,494.998749 484.386200,498.671722 
	C505.921448,502.792084 527.303955,502.136810 548.831665,498.270844 
	C563.207092,495.689331 577.338562,491.837067 591.934875,490.352875 
	C601.572266,489.372925 610.832336,491.009186 620.085083,493.063507 
	C632.640198,495.850952 645.206787,498.118134 658.114807,495.879089 
	C678.269897,492.382874 691.506226,480.329346 699.511780,462.033722 
	C702.746582,454.640869 704.208862,446.843964 704.117310,438.696777 
	C703.913208,420.536163 704.011658,402.372345 703.860962,384.210876 
	C703.739075,369.526672 696.326233,358.882538 684.353516,351.366364 
	C671.133484,343.067261 656.154175,338.652863 641.618958,333.359650 
	C604.633606,319.890900 566.770752,309.745880 527.864807,303.507690 
	C509.088440,300.497070 490.237213,298.651794 471.235626,298.456970 
	C467.947083,298.423279 465.580902,297.407104 463.388977,295.023743 
	C458.236328,289.421082 452.890228,283.996307 447.175201,278.032867 
	C453.739319,276.118469 460.374603,276.253784 466.854797,275.835632 
	C477.067261,275.176666 477.083374,275.425781 477.680267,265.170685 
	C478.612244,249.158127 490.426178,242.482483 504.567566,250.074173 
	C514.395874,255.350433 521.583679,263.454163 527.245728,272.814362 
	C529.396362,276.369690 532.001282,277.979950 535.825562,278.571838 
	C555.881287,281.675842 575.858643,285.362488 595.401672,290.778931 
	C629.253174,300.160980 663.193848,309.665985 694.122253,326.876770 
	C718.678589,340.541656 731.370667,361.891602 731.128906,390.328613 
	C730.964722,409.645386 731.988647,428.983032 730.398132,448.276459 
	C727.603394,482.177094 701.833801,512.129761 668.880981,520.278076 
	C651.642761,524.540649 634.544861,523.171143 617.420166,519.897705 
	C615.784241,519.584961 614.213745,519.034912 612.496765,519.721130 
	C611.805237,521.750977 613.265869,523.186829 613.981812,524.754822 
	C629.478577,558.694153 638.347778,594.152588 637.139832,631.613220 
	C635.965332,668.034973 626.908813,702.298279 606.553772,733.026367 
	C605.268677,734.966431 604.374146,737.540894 600.777100,738.346375 
	C605.965271,701.504761 604.127197,665.667480 591.529907,630.432861 
z"/>
<path fill="#000000" opacity="1.000000" stroke="none" 
	d="
M401.034546,299.040955 
	C405.393036,311.505188 414.489929,319.015259 425.250946,324.973389 
	C437.669525,331.849304 437.370972,331.597534 427.963989,342.070282 
	C411.881653,359.974670 398.541809,379.935333 386.022339,400.421722 
	C359.999298,443.004944 341.427765,488.593384 331.756165,537.633362 
	C326.385071,564.867676 324.332703,592.460022 326.546387,620.112427 
	C329.065063,651.573914 336.830688,681.720276 352.832672,709.339661 
	C355.843414,714.536255 355.295807,718.705017 351.731567,721.399597 
	C348.050629,724.182434 343.303925,723.476013 339.377258,718.881836 
	C318.129913,694.022400 303.858429,665.822632 299.685059,633.110107 
	C292.323700,575.408813 302.505402,520.140625 323.302185,466.381470 
	C338.407654,427.334167 358.232544,390.850708 382.422272,356.713501 
	C386.841583,350.476837 391.370178,344.317657 395.829651,338.148529 
	C395.558014,336.360229 393.950470,336.311554 392.840424,335.788605 
	C367.142670,323.682678 356.155884,291.354095 368.175751,264.471375 
	C374.403442,250.542969 386.802246,245.019089 401.542206,249.191711 
	C413.465820,252.567032 422.617767,259.806793 429.105988,270.213654 
	C433.241058,276.846130 436.810577,283.837189 440.507599,290.735046 
	C444.140167,297.512604 448.789185,303.510864 455.375336,309.416626 
	C447.055634,311.144745 440.117554,310.131104 433.254974,308.600861 
	C421.034698,305.876007 413.305878,297.649689 407.962494,286.940887 
	C403.076202,277.148254 394.876831,272.890869 383.133759,271.457001 
	C392.017731,279.519348 397.369843,288.546021 401.034546,299.040955 
z"/>
<path fill="#000000" opacity="1.000000" stroke="none" 
	d="
M483.882690,766.117920 
	C486.239838,768.497620 488.467407,770.525940 490.401031,772.803833 
	C492.194641,774.916687 492.298462,777.412170 490.743347,779.755005 
	C489.286774,781.949402 487.134857,782.524048 484.602661,781.969604 
	C479.571503,780.867920 474.560547,779.641418 469.490662,778.756104 
	C459.036438,776.930542 451.017181,771.474365 443.748993,763.807434 
	C404.578857,722.488342 377.821808,674.468994 365.457428,618.827881 
	C360.159637,594.987305 359.856873,570.689331 361.358765,546.296082 
	C362.695648,524.582458 366.659058,503.445343 372.712402,482.636627 
	C373.542023,479.784790 374.674927,476.925507 376.207245,474.396820 
	C378.347076,470.865479 381.698273,468.798920 385.936584,470.061218 
	C390.183624,471.326141 392.603912,474.366180 392.325592,479.041504 
	C391.868805,486.715546 389.435852,494.032867 388.193604,501.571655 
	C384.140442,526.168396 383.051331,550.788696 386.139832,575.613525 
	C391.797272,621.087402 406.427155,663.373047 430.874939,702.114624 
	C445.692932,725.596252 463.380493,746.823120 483.882690,766.117920 
z"/>
<path fill="#000000" opacity="1.000000" stroke="none" 
	d="
M512.349609,727.620239 
	C486.570221,696.388428 466.120667,662.516113 452.913849,624.434692 
	C445.792755,603.901367 441.738434,582.719849 438.893341,561.264282 
	C438.212952,556.133118 440.939301,552.152039 445.442413,550.773743 
	C450.357300,549.269470 454.863495,550.949097 457.061584,555.844055 
	C458.817169,559.753784 459.902283,563.991211 461.029480,568.152405 
	C475.265289,620.704895 500.238007,667.663757 534.654358,709.715759 
	C545.105225,722.485229 555.978210,734.853455 568.237732,745.958740 
	C572.855957,750.142090 572.616699,754.059814 567.954895,758.227173 
	C554.547668,770.211975 552.797852,770.203735 540.053406,757.584351 
	C530.464539,748.089661 521.268738,738.223755 512.349609,727.620239 
z"/>
<path fill="#000000" opacity="1.000000" stroke="none" 
	d="
M576.817139,670.541992 
	C570.596741,678.236877 564.649048,678.294678 557.352112,670.752625 
	C546.563477,659.601562 537.454895,647.072388 528.285400,634.609802 
	C526.125488,631.674316 524.116333,628.584290 522.411316,625.367371 
	C519.417786,619.719727 520.721619,613.872192 525.356018,610.767151 
	C530.470032,607.340820 535.033997,608.171814 539.622375,613.956116 
	C549.546082,626.466187 559.263550,639.139832 569.085327,651.730957 
	C571.232300,654.483276 573.566040,657.094788 575.627441,659.907715 
	C577.918152,663.033447 578.835938,666.467651 576.817139,670.541992 
z"/>
<path fill="#000000" opacity="1.000000" stroke="none" 
	d="
M504.469574,372.089905 
	C496.209625,370.403259 491.912476,365.418549 491.072906,357.642761 
	C490.716919,354.345642 489.071686,352.679108 486.369171,351.287842 
	C482.189484,349.136047 477.835510,347.125458 474.813904,343.005829 
	C499.580780,333.049713 528.845215,345.385376 537.785461,369.432617 
	C534.527649,370.283112 531.620728,368.830475 528.733643,368.094025 
	C524.353882,366.976807 520.374939,366.938080 516.325073,369.424286 
	C512.910828,371.520325 509.032684,372.648315 504.469574,372.089905 
z"/>
<path fill="#000000" opacity="1.000000" stroke="none" 
	d="
M653.524780,389.873596 
	C656.967163,384.658569 661.358398,382.050110 667.288147,383.541595 
	C672.682922,384.898529 675.615845,388.788727 676.594971,394.145142 
	C677.534424,399.284241 675.046509,404.502777 670.409546,407.314850 
	C666.002502,409.987427 661.525818,410.161530 657.306824,407.064392 
	C653.111389,403.984528 650.950012,399.833527 651.970398,394.487610 
	C652.248352,393.031372 652.880432,391.642700 653.524780,389.873596 
z"/>
</svg>